<svg xmlns="http://www.w3.org/2000/svg" id="Layer_1" data-name="Layer 1" viewBox="0 0 531.6 754.41"><defs><style>.cls-1{fill:#fff;}</style></defs><path class="cls-1" d="M190.31,514c-4,1.15-8.08,2.28-12.12,3.41h140c67.07-23.48,130.38-49.73,186.3-79q8.76-4.59,17.43-9.24v-55c-24.37,14.73-49.77,29-75.91,42.63C372.15,455.42,282.8,487.51,190.31,514Z"></path><path class="cls-1" d="M327.29,8.69H220.4c-.36.23-.73.44-1.1.66-67.88,41-138.26,97.47-206,159.59v58c62.48-60.51,129.43-117.12,193.83-156C247.3,46.57,287.85,25.34,327.29,8.69Z"></path><path class="cls-1" d="M188.58,462.86C130,479.62,69.79,493.41,13.29,504.6a13.33,13.33,0,0,0,13.29,12.79H150q19.19-5.13,38.25-10.58c92.18-26.37,181.12-58.34,254.34-96.63,27.4-14.33,54-29.28,79.36-44.76V301.27c-39.87,31.34-87,60.7-137.83,87.27C327.59,418.1,259.28,442.63,188.58,462.86Z"></path><path class="cls-1" d="M318.75,353.69c37-19.34,71.12-40.81,99.26-63.63s50.28-47,63.36-71.51c8.73-16.35,13.45-32.83,13.45-49.29,0-14.9-3.85-29.85-12.33-44.91-9.62-17-22.18-28.91-37.19-36.66s-32.56-11.34-52.08-11.34c-27.06,0-57.84,6.94-90.28,19s-66.55,29.33-100.36,49.76c-63.91,38.6-132.24,103.4-189.32,164.79v36.27Q20.4,338.67,28,330.8c49.7-51.25,114-111.27,173-146.62,28.19-16.88,56.51-31.28,83.24-41.49s51.88-16.25,73.83-16.26c13.65,0,26.11,2.36,36.84,7.65A62.49,62.49,0,0,1,429.08,189c0,13-4.23,26.08-11.66,38.88s-18.07,25.42-31.12,37.75c-26.12,24.63-61.94,48.14-101.51,69.05-30.37,16.05-66.64,30-104,42S105,398.59,70.28,406.55c-20.7,4.75-40,8.79-57,12.12v24c52.07-8.92,113.05-21.38,171.54-38.11C233.39,390.68,280.25,373.82,318.75,353.69Z"></path><path class="cls-1" d="M128.54,8.69C90.05,37.43,51.43,69.08,13.26,102.55v56.28C76.66,101.1,142.3,48.47,206.18,8.69Z"></path><path class="cls-1" d="M26.58,8.69A13.38,13.38,0,0,0,13.26,22V92.64C47.33,62.94,81.75,34.7,116.13,8.69Z"></path><path class="cls-1" d="M340.45,517.39h168.2A13.35,13.35,0,0,0,522,504.08V437.63q-7,3.72-14,7.39C457.18,471.58,400.46,495.64,340.45,517.39Z"></path><path class="cls-1" d="M518.05,12.61a13.26,13.26,0,0,0-9.4-3.92H347.08C302.84,26,256.69,49.6,210.94,77.25,145.51,116.78,77,175.14,13.26,237.31V299c56.19-59.89,122.53-122.2,185.47-160.26,34.12-20.62,68.6-38.06,101.61-50.36s64.55-19.5,92.88-19.51c20.42,0,39.2,3.76,55.5,12.16s30,21.46,40.26,39.63c9.06,16.05,13.3,32.37,13.3,48.57,0,17.91-5.16,35.61-14.34,52.8S465.55,256,449.29,272.13C416.75,304.38,372,334.27,322.2,360.3c-39.18,20.48-86.44,37.45-135.35,51.44s-99.43,25-145.1,33.45q-14.61,2.7-28.49,5.06V497c55.93-11.11,115.44-24.77,173.27-41.32,70.38-20.13,138.28-44.54,194.14-73.76,52.46-27.43,101-57.84,141.29-90.17V22A13.23,13.23,0,0,0,518.05,12.61Z"></path><polygon class="cls-1" points="13.22 742.93 17.93 742.93 17.93 714.7 46.08 714.7 46.08 710.51 17.93 710.51 17.93 684.9 50.97 684.9 50.97 680.7 13.22 680.7 13.22 742.93"></polygon><path class="cls-1" d="M80.6,680.18a21.92,21.92,0,0,0-15.55,6.38c-5.68,5.68-5.77,11.19-5.77,25.26s.09,19.58,5.77,25.26a22.15,22.15,0,0,0,31.11,0c5.68-5.68,5.77-11.19,5.77-25.26s-.09-19.58-5.77-25.26A21.94,21.94,0,0,0,80.6,680.18Zm11.8,54.27a16.87,16.87,0,0,1-23.59,0C64.35,730,64,725.19,64,711.82s.35-18.18,4.81-22.64a16.87,16.87,0,0,1,23.59,0c4.46,4.46,4.81,9.27,4.81,22.64S96.86,730,92.4,734.45Z"></path><path class="cls-1" d="M155.69,722.13c0,10.32-6.65,17.13-16.61,17.13s-16.61-6.81-16.61-17.13V680.7h-4.72v42c0,12.15,8.83,20.72,21.33,20.72s21.33-8.57,21.33-20.72v-42h-4.72Z"></path><polygon class="cls-1" points="219.32 734.63 183.4 680.7 178.68 680.7 178.68 742.93 183.4 742.93 183.4 688.83 219.32 742.93 224.04 742.93 224.04 680.7 219.32 680.7 219.32 734.63"></polygon><path class="cls-1" d="M279.63,686.39c-3.67-3.68-9.09-5.69-15.56-5.69H243.18v62.23h20.89c6.47,0,11.89-2,15.56-5.68,6.29-6.29,6-17.92,6-26.31S285.92,692.68,279.63,686.39Zm-3.32,47.54c-3.58,3.67-8.39,4.81-13.37,4.81h-15V684.9h15c5,0,9.79,1.14,13.37,4.81,5,5.07,4.63,14.33,4.63,21.23S281.29,728.86,276.31,733.93Z"></path><path class="cls-1" d="M316.08,680.7l-22.9,62.23h5.07l5.42-15.12h29l5.41,15.12h5.07l-22.9-62.23Zm-10.93,42.92,13-36.62,13,36.62Z"></path><polygon class="cls-1" points="341.77 684.9 360.3 684.9 360.3 742.93 365.02 742.93 365.02 684.9 383.64 684.9 383.64 680.7 341.77 680.7 341.77 684.9"></polygon><rect class="cls-1" x="395.79" y="680.7" width="4.72" height="62.23"></rect><path class="cls-1" d="M438.53,680.18A21.94,21.94,0,0,0,423,686.56c-5.68,5.68-5.77,11.19-5.77,25.26s.09,19.58,5.77,25.26a22.16,22.16,0,0,0,31.12,0c5.68-5.68,5.76-11.19,5.76-25.26s-.08-19.58-5.76-25.26A22,22,0,0,0,438.53,680.18Zm11.8,54.27a16.88,16.88,0,0,1-23.6,0c-4.46-4.45-4.81-9.26-4.81-22.63s.35-18.18,4.81-22.64a16.88,16.88,0,0,1,23.6,0c4.45,4.46,4.8,9.27,4.8,22.64S454.78,730,450.33,734.45Z"></path><polygon class="cls-1" points="517.2 734.63 481.27 680.7 476.55 680.7 476.55 742.93 481.27 742.93 481.27 688.83 517.2 742.93 521.91 742.93 521.91 680.7 517.2 680.7 517.2 734.63"></polygon><path class="cls-1" d="M63.14,638.28a54.5,54.5,0,0,0,1.34-12.4,81.19,81.19,0,0,0-.59-10.31,26.14,26.14,0,0,0-2.3-8,18.43,18.43,0,0,0-4.83-6.08,28.9,28.9,0,0,0-8.16-4.53L37,592.34A24,24,0,0,1,32.34,590a8.51,8.51,0,0,1-2.59-2.75,9.29,9.29,0,0,1-1.12-3.71,52.13,52.13,0,0,1-.22-5.27,28.27,28.27,0,0,1,.45-5.12,12.48,12.48,0,0,1,1.56-4.31,8.89,8.89,0,0,1,3.11-3,10,10,0,0,1,5.12-1.19q5.79,0,8.24,3.79a16.19,16.19,0,0,1,2.45,9v3.41H64.48v-7.42a22.11,22.11,0,0,0-1.78-8.68A24.64,24.64,0,0,0,57.58,557a25.84,25.84,0,0,0-8-5.49,25.19,25.19,0,0,0-10.31-2.08,26.65,26.65,0,0,0-11.43,2.3,22.91,22.91,0,0,0-8.09,6.17,26.21,26.21,0,0,0-4.83,9.2,38.32,38.32,0,0,0-1.63,11.28q0,9.95,3.34,16.55t13.14,10.61L40.58,610a35.49,35.49,0,0,1,4.53,2.23,7.59,7.59,0,0,1,2.67,2.67A10.89,10.89,0,0,1,49,619.2a63.35,63.35,0,0,1,.3,6.83,65.2,65.2,0,0,1-.3,6.53,12.67,12.67,0,0,1-1.41,5,7.62,7.62,0,0,1-3.26,3.12,13.33,13.33,0,0,1-6,1.11q-5.79,0-8.24-3.33a12.34,12.34,0,0,1-2.45-7.5v-4.75H12.53v5.64A24.88,24.88,0,0,0,20,649.71,25.22,25.22,0,0,0,28.11,655a27.09,27.09,0,0,0,10.25,1.92,28.89,28.89,0,0,0,12.32-2.37,21,21,0,0,0,8.08-6.46A26.05,26.05,0,0,0,63.14,638.28Z"></path><path class="cls-1" d="M122.66,641.91a23.9,23.9,0,0,0,1.93-9.65V550.34H109.45v80.44q0,5.64-2.67,8.31a9.69,9.69,0,0,1-13.36,0q-2.67-2.67-2.67-8.31V550.34H75.61v81.92a23.9,23.9,0,0,0,1.93,9.65,24.81,24.81,0,0,0,5.27,7.8A25.1,25.1,0,0,0,90.6,655a24.46,24.46,0,0,0,19,0,24.79,24.79,0,0,0,13.06-13.07Z"></path><path class="cls-1" d="M176.69,607.78a22.44,22.44,0,0,0,10.17-10.62,39.2,39.2,0,0,0,2.89-15.81q0-31-26.72-31H138.69V656h15.14V610.89h9L177,656h16Zm-2.52-19.67a13.61,13.61,0,0,1-1.71,5.12,8.24,8.24,0,0,1-3.64,3.19,15.25,15.25,0,0,1-6.38,1.11h-8.61V564.58h7.87a18,18,0,0,1,6.68,1,8.46,8.46,0,0,1,3.93,3.19,12.81,12.81,0,0,1,1.86,5.2,56.7,56.7,0,0,1,0,14.1Z"></path><polygon class="cls-1" points="246.89 564.59 246.89 550.34 201.77 550.34 201.77 656.01 216.91 656.01 216.91 610.89 243.03 610.89 243.03 596.64 216.91 596.64 216.91 564.59 246.89 564.59"></polygon><path class="cls-1" d="M304.7,597.16a39,39,0,0,0,2.9-15.81q0-31-26.72-31H256.54V656h15.14V610.89h9.05L294.84,656h16l-16.32-48.23A22.42,22.42,0,0,0,304.7,597.16Zm-12.69-9a13.43,13.43,0,0,1-1.7,5.12,8.24,8.24,0,0,1-3.64,3.19,15.25,15.25,0,0,1-6.38,1.11h-8.61V564.58h7.87a17.93,17.93,0,0,1,6.68,1,8.46,8.46,0,0,1,3.93,3.19A12.66,12.66,0,0,1,292,574a55.45,55.45,0,0,1,0,14.1Z"></path><rect class="cls-1" x="320.06" y="550.34" width="15.14" height="105.68"></rect><path class="cls-1" d="M372.16,550.34H349.75V656h21.08q13.5,0,20.7-7t7.2-21.89V577.65q0-12.92-6.82-20.12T372.16,550.34Zm11.43,78.21q0,6.84-2.67,10t-9.05,3.19h-7V564.58h7q6.67,0,9.2,3.42t2.52,9.65Z"></path><polygon class="cls-1" points="410.98 656.01 456.11 656.01 456.11 640.88 426.12 640.88 426.12 609.85 452.25 609.85 452.25 595.6 426.12 595.6 426.12 564.59 456.11 564.59 456.11 550.34 410.98 550.34 410.98 656.01"></polygon><path class="cls-1" d="M482.74,610.89h9.05L505.9,656h16L505.6,607.78a22.44,22.44,0,0,0,10.17-10.62,39.2,39.2,0,0,0,2.89-15.81q0-31-26.72-31H467.6V656h15.14Zm0-46.31h7.87a17.93,17.93,0,0,1,6.68,1,8.46,8.46,0,0,1,3.93,3.19,12.81,12.81,0,0,1,1.86,5.2,56.7,56.7,0,0,1,0,14.1,13.61,13.61,0,0,1-1.71,5.12,8.24,8.24,0,0,1-3.64,3.19,15.25,15.25,0,0,1-6.38,1.11h-8.61Z"></path></svg>